<svg xmlns="http://www.w3.org/2000/svg" viewBox="0 0 22.41 24.88"><defs><style>.cls-1{fill:#0065ff;fill-rule:evenodd;}</style></defs><g id="Camada_2" data-name="Camada 2"><g id="Camada_1-2" data-name="Camada 1"><path class="cls-1" d="M16.07,13.4a6.2,6.2,0,0,1-1.21,3.13,5.45,5.45,0,0,1-3.49,2.09,5.92,5.92,0,0,1-1.19.1H6.63c0-.2,0-12.1,0-12.47a.29.29,0,0,1,0-.09l.19,0h3.4a6.15,6.15,0,0,1,2.64.57,5.54,5.54,0,0,1,2.82,3.1,6.89,6.89,0,0,1,.37,1.47A7.93,7.93,0,0,1,16.07,13.4Zm5.35-6A11.88,11.88,0,0,0,10.44,0C7,0,3.65,0,.25,0H0A.8.8,0,0,0,0,.38V24.51a1.93,1.93,0,0,0,0,.24.7.7,0,0,0,0,.12H10c.53,0,1.06,0,1.6-.08a9.8,9.8,0,0,0,1.77-.31,11.71,11.71,0,0,0,7.1-5.1,12.39,12.39,0,0,0,2-6.07,13.49,13.49,0,0,0-.12-2.91A12.59,12.59,0,0,0,21.42,7.4Z"/></g></g></svg>